<?xml version="1.0" encoding="iso-8859-1"?>
<!-- Uploaded to: SVG Repo, www.svgrepo.com, Generator: SVG Repo Mixer Tools -->
<svg height="800px" width="800px" version="1.1" id="Layer_1" xmlns="http://www.w3.org/2000/svg" xmlns:xlink="http://www.w3.org/1999/xlink" 
	 viewBox="0 0 512.001 512.001" xml:space="preserve">
<g>
	<path style="fill:#85BC04;" d="M309.356,456.586v-19.82c0-34.649,28.088-62.737,62.737-62.737h30.599
		c2.625,0,4.752,2.128,4.752,4.752v19.82c0,34.649-28.088,62.737-62.737,62.737h-30.599
		C311.484,461.339,309.356,459.211,309.356,456.586z"/>
	<path style="fill:#85BC04;" d="M167.293,461.339c-34.649,0-62.737-28.088-62.737-62.737v-19.82c0-2.625,2.128-4.752,4.752-4.752
		h30.599c34.649,0,62.737,28.088,62.737,62.737v19.82c0,2.625-2.128,4.752-4.752,4.752H167.293z"/>
</g>
<path style="fill:#EFCA83;" d="M31.534,181.086c-12.185,0-22.097-9.912-22.097-22.097s9.912-22.097,22.097-22.097
	s22.097,9.912,22.097,22.097S43.719,181.086,31.534,181.086z"/>
<path style="fill:#6B563C;" d="M308.852,288.874l-50.945,55.263c-0.689,0.688-1.491,0.79-1.908,0.79s-1.219-0.103-1.907-0.788
	L192.45,279.15l-16.874,19.305l61.022,85.279c0.299,0.398,0.481,0.872,0.526,1.371l9.803,107.835
	c0.43,4.721,4.331,8.283,9.072,8.283c4.741,0,8.641-3.561,9.072-8.284l9.803-107.834c0.045-0.5,0.227-0.973,0.527-1.373
	l57.473-81.701L308.852,288.874z"/>
<g>
	<path style="fill:#EFCA83;" d="M318.783,73.297c-18.127,0-32.876-14.749-32.876-32.876s14.749-32.876,32.876-32.876
		c18.127,0,32.876,14.749,32.876,32.876S336.911,73.297,318.783,73.297z"/>
	<path style="fill:#EFCA83;" d="M405.014,73.297c-12.185,0-22.097-9.912-22.097-22.097s9.912-22.097,22.097-22.097
		s22.097,9.912,22.097,22.097S417.199,73.297,405.014,73.297z"/>
	<path style="fill:#EFCA83;" d="M458.909,116.413c-12.185,0-22.097-9.912-22.097-22.097s9.912-22.097,22.097-22.097
		s22.097,9.912,22.097,22.097S471.093,116.413,458.909,116.413z"/>
	<path style="fill:#EFCA83;" d="M480.467,181.086c-12.185,0-22.097-9.912-22.097-22.097s9.912-22.097,22.097-22.097
		s22.097,9.912,22.097,22.097S492.651,181.086,480.467,181.086z"/>
	<path style="fill:#EFCA83;" d="M193.219,73.297c-18.127,0-32.876-14.749-32.876-32.876s14.749-32.876,32.876-32.876
		s32.876,14.749,32.876,32.876S211.346,73.297,193.219,73.297z"/>
	<path style="fill:#EFCA83;" d="M106.987,73.297c-12.185,0-22.097-9.912-22.097-22.097s9.912-22.097,22.097-22.097
		s22.097,9.912,22.097,22.097S119.172,73.297,106.987,73.297z"/>
	<path style="fill:#EFCA83;" d="M53.092,116.413c-12.185,0-22.097-9.912-22.097-22.097s9.912-22.097,22.097-22.097
		s22.097,9.912,22.097,22.097S65.277,116.413,53.092,116.413z"/>
</g>
<g>
	<path style="fill:#EABB71;" d="M27.154,158.989c0-9.034,5.455-16.808,13.239-20.23c-2.715-1.193-5.707-1.867-8.858-1.867
		c-12.185,0-22.097,9.912-22.097,22.097s9.912,22.097,22.097,22.097c3.151,0,6.143-0.674,8.858-1.867
		C32.608,175.797,27.154,168.023,27.154,158.989z"/>
	<path style="fill:#EABB71;" d="M303.623,40.421c0-15.058,10.181-27.775,24.018-31.653c-2.82-0.79-5.788-1.222-8.858-1.222
		c-18.127,0-32.876,14.749-32.876,32.876s14.749,32.876,32.876,32.876c3.069,0,6.038-0.432,8.858-1.222
		C313.804,68.196,303.623,55.479,303.623,40.421z"/>
	<path style="fill:#EABB71;" d="M400.634,51.2c0-9.034,5.455-16.808,13.239-20.23c-2.715-1.193-5.707-1.867-8.858-1.867
		c-12.184,0-22.097,9.912-22.097,22.097s9.912,22.097,22.097,22.097c3.151,0,6.143-0.674,8.858-1.867
		C406.089,68.008,400.634,60.234,400.634,51.2z"/>
	<path style="fill:#EABB71;" d="M454.528,94.316c0-9.034,5.455-16.808,13.239-20.23c-2.715-1.193-5.707-1.867-8.858-1.867
		c-12.185,0-22.097,9.912-22.097,22.097s9.912,22.097,22.097,22.097c3.151,0,6.143-0.674,8.858-1.867
		C459.983,111.123,454.528,103.35,454.528,94.316z"/>
	<path style="fill:#EABB71;" d="M476.086,158.989c0-9.034,5.455-16.808,13.239-20.23c-2.715-1.193-5.707-1.867-8.858-1.867
		c-12.185,0-22.097,9.912-22.097,22.097s9.912,22.097,22.097,22.097c3.151,0,6.143-0.674,8.858-1.867
		C481.541,175.797,476.086,168.023,476.086,158.989z"/>
	<path style="fill:#EABB71;" d="M178.059,40.421c0-15.058,10.181-27.775,24.018-31.653c-2.821-0.79-5.789-1.222-8.858-1.222
		c-18.127,0-32.876,14.749-32.876,32.876s14.749,32.876,32.876,32.876c3.069,0,6.038-0.432,8.858-1.222
		C188.24,68.196,178.059,55.479,178.059,40.421z"/>
	<path style="fill:#EABB71;" d="M102.606,51.2c0-9.034,5.455-16.808,13.239-20.23c-2.715-1.193-5.707-1.867-8.858-1.867
		c-12.185,0-22.097,9.912-22.097,22.097s9.912,22.097,22.097,22.097c3.151,0,6.143-0.674,8.858-1.867
		C108.061,68.008,102.606,60.234,102.606,51.2z"/>
	<path style="fill:#EABB71;" d="M48.712,94.316c0-9.034,5.455-16.808,13.239-20.23c-2.715-1.193-5.707-1.867-8.858-1.867
		c-12.185,0-22.097,9.912-22.097,22.097s9.912,22.097,22.097,22.097c3.151,0,6.143-0.674,8.858-1.867
		C54.166,111.123,48.712,103.35,48.712,94.316z"/>
</g>
<g>
	<path style="fill:#EFCA83;" d="M330.968,319.83c-8.55,0-16.724-1.966-24.296-5.843c-23.304-11.933-34.842-38.782-27.435-63.842
		c2.993-10.128,4.868-20.221,5.569-29.997l0.305-4.249c0.748-10.421,0.11-21.589-1.902-33.195
		c-2.909-16.783-0.202-33.617,7.833-48.682c9.604-18.005,25.656-31.152,45.198-37.02c7.165-2.153,14.548-3.244,21.944-3.244
		c12.523,0,25.033,3.198,36.177,9.246c36.547,19.842,50.157,66.216,30.338,103.375l-44.79,83.979
		C370.215,308.537,351.462,319.83,330.968,319.83z"/>
	<path style="fill:#EFCA83;" d="M181.035,319.83c-20.496,0-39.25-11.293-48.945-29.471L87.301,206.38
		c-19.819-37.16-6.21-83.534,30.338-103.374c11.142-6.049,23.651-9.247,36.177-9.247c7.392,0,14.776,1.092,21.944,3.244
		c19.543,5.867,35.594,19.015,45.197,37.02c8.035,15.065,10.743,31.898,7.834,48.683c-2.011,11.606-2.651,22.773-1.902,33.193
		l0.305,4.25c0.702,9.775,2.576,19.869,5.569,29.997c7.408,25.059-4.13,51.907-27.436,63.842
		C197.863,317.809,189.463,319.83,181.035,319.83z"/>
</g>
<g>
	<path style="fill:#79AB03;" d="M335.718,456.586v-19.82c0-34.649,28.089-62.737,62.737-62.737h-26.362
		c-34.649,0-62.737,28.088-62.737,62.737v19.82c0,2.625,2.128,4.752,4.752,4.752h26.362
		C337.846,461.339,335.718,459.211,335.718,456.586z"/>
	<path style="fill:#79AB03;" d="M130.918,398.602v-19.82c0-2.625,2.128-4.752,4.752-4.752h-26.362c-2.625,0-4.752,2.128-4.752,4.752
		v19.82c0,34.648,28.088,62.737,62.737,62.737h26.362C159.006,461.339,130.918,433.25,130.918,398.602z"/>
</g>
<g>
	<path style="fill:#EABB71;" d="M333.033,313.986c-23.304-11.933-34.842-38.782-27.435-63.842
		c2.993-10.128,4.868-20.221,5.569-29.997l0.305-4.249c0.748-10.421,0.11-21.589-1.902-33.195
		c-2.909-16.783-0.202-33.617,7.833-48.682c9.604-18.005,25.656-31.152,45.198-37.02c2.874-0.863,5.783-1.548,8.713-2.067
		c-4.336-0.774-8.732-1.177-13.13-1.177c-7.395,0-14.779,1.092-21.944,3.244c-19.542,5.867-35.593,19.015-45.198,37.02
		c-8.034,15.065-10.742,31.899-7.833,48.682c2.011,11.606,2.651,22.774,1.902,33.195l-0.305,4.249
		c-0.702,9.775-2.576,19.869-5.569,29.997c-7.407,25.059,4.13,51.907,27.435,63.842c7.572,3.877,15.746,5.843,24.296,5.843
		c4.543,0,8.999-0.557,13.292-1.619C340.399,317.236,336.645,315.835,333.033,313.986z"/>
	<path style="fill:#EABB71;" d="M158.451,290.359l-44.789-83.979c-19.819-37.16-6.21-83.534,30.338-103.374
		c7.229-3.925,15.034-6.641,23.045-8.07c-4.378-0.777-8.802-1.177-13.23-1.177c-12.525,0-25.035,3.198-36.177,9.247
		C81.092,122.847,67.482,169.221,87.3,206.38l44.789,83.979c9.695,18.178,28.45,29.471,48.945,29.471
		c4.395,0,8.778-0.562,13.029-1.63C179.01,314.464,165.991,304.494,158.451,290.359z"/>
</g>
<path d="M318.783,80.842c22.289,0,40.421-18.132,40.421-40.421S341.071,0,318.783,0s-40.421,18.132-40.421,40.421
	S296.494,80.842,318.783,80.842z M318.783,16.168c13.372,0,24.253,10.88,24.253,24.253s-10.88,24.253-24.253,24.253
	s-24.253-10.88-24.253-24.253S305.41,16.168,318.783,16.168z"/>
<path d="M405.014,80.842c16.344,0,29.642-13.298,29.642-29.642s-13.298-29.642-29.642-29.642c-16.344,0-29.642,13.298-29.642,29.642
	S388.67,80.842,405.014,80.842z M405.014,37.726c7.43,0,13.474,6.044,13.474,13.474s-6.044,13.474-13.474,13.474
	S391.54,58.63,391.54,51.2S397.585,37.726,405.014,37.726z"/>
<path d="M458.909,123.958c16.344,0,29.642-13.298,29.642-29.642s-13.298-29.642-29.642-29.642s-29.642,13.298-29.642,29.642
	S442.565,123.958,458.909,123.958z M458.909,80.842c7.43,0,13.474,6.044,13.474,13.474c0,7.43-6.044,13.474-13.474,13.474
	s-13.474-6.044-13.474-13.474C445.435,86.886,451.48,80.842,458.909,80.842z"/>
<path d="M480.467,129.347c-16.344,0-29.642,13.298-29.642,29.642s13.298,29.642,29.642,29.642s29.642-13.298,29.642-29.642
	S496.811,129.347,480.467,129.347z M480.467,172.463c-7.43,0-13.474-6.044-13.474-13.474s6.044-13.474,13.474-13.474
	s13.474,6.044,13.474,13.474S487.897,172.463,480.467,172.463z"/>
<path d="M193.219,80.842c22.289,0,40.421-18.132,40.421-40.421S215.507,0,193.219,0s-40.421,18.132-40.421,40.421
	S170.93,80.842,193.219,80.842z M193.219,16.168c13.372,0,24.253,10.88,24.253,24.253s-10.88,24.253-24.253,24.253
	c-13.372,0-24.253-10.88-24.253-24.253S179.846,16.168,193.219,16.168z"/>
<path d="M106.987,80.842c16.344,0,29.642-13.298,29.642-29.642s-13.298-29.642-29.642-29.642S77.345,34.856,77.345,51.2
	S90.643,80.842,106.987,80.842z M106.987,37.726c7.43,0,13.474,6.044,13.474,13.474s-6.045,13.474-13.474,13.474
	c-7.429,0-13.474-6.044-13.474-13.474S99.557,37.726,106.987,37.726z"/>
<path d="M53.092,123.958c16.344,0,29.642-13.298,29.642-29.642S69.436,64.674,53.092,64.674S23.45,77.972,23.45,94.316
	S36.748,123.958,53.092,123.958z M53.092,80.842c7.43,0,13.474,6.044,13.474,13.474c0,7.43-6.044,13.474-13.474,13.474
	s-13.474-6.044-13.474-13.474C39.619,86.886,45.662,80.842,53.092,80.842z"/>
<path d="M31.534,129.347c-16.344,0-29.642,13.298-29.642,29.642s13.298,29.642,29.642,29.642s29.642-13.298,29.642-29.642
	S47.878,129.347,31.534,129.347z M31.534,172.463c-7.43,0-13.474-6.044-13.474-13.474s6.044-13.474,13.474-13.474
	s13.474,6.044,13.474,13.474S38.963,172.463,31.534,172.463z"/>
<path d="M406.906,366.484h-34.813c-38.754,0-70.282,31.528-70.282,70.282V460.8c0,4.466,3.618,8.084,8.084,8.084h34.813
	c38.754,0,70.282-31.528,70.282-70.282v-24.034C414.99,370.103,411.372,366.484,406.906,366.484z M398.822,398.602
	c0,29.838-24.275,54.114-54.114,54.114h-26.729v-15.95c0-29.838,24.275-54.114,54.114-54.114h26.729V398.602z"/>
<path d="M139.908,366.484h-34.813c-4.466,0-8.084,3.618-8.084,8.084v24.034c0,38.754,31.528,70.282,70.282,70.282h34.813
	c4.466,0,8.084-3.618,8.084-8.084v-24.034C210.19,398.013,178.662,366.484,139.908,366.484z M194.022,452.716h-26.729
	c-29.838,0-54.114-24.275-54.114-54.114v-15.95h26.729c29.838,0,54.114,24.275,54.114,54.114V452.716z"/>
<path d="M397.961,96.375c-19.72-10.709-42.412-13.051-63.891-6.599c-21.484,6.45-39.129,20.905-49.686,40.696
	c-8.83,16.559-11.807,35.066-8.608,53.521c1.907,11.003,2.516,21.556,1.811,31.366l-0.305,4.25
	c-0.664,9.238-2.44,18.793-5.28,28.398c-5.849,19.785-1.322,40.544,10.845,55.947l-26.847,26.846l-26.845-26.846
	c12.166-15.403,16.693-36.161,10.845-55.946c-2.84-9.605-4.616-19.16-5.28-28.398l-0.305-4.251
	c-0.705-9.809-0.096-20.361,1.811-31.364c3.199-18.456,0.222-36.963-8.609-53.522c-10.556-19.791-28.201-34.246-49.684-40.696
	c-21.481-6.45-44.171-4.108-63.891,6.599v-0.001c-40.176,21.81-55.158,72.753-33.395,113.557l12.964,24.305
	c2.555,4.79,9.01,5.751,12.849,1.912l0,0c2.516-2.516,3.091-6.381,1.416-9.52l-12.963-24.305
	c-17.598-32.995-5.555-74.149,26.843-91.737v-0.001c10.019-5.439,20.987-8.202,32.063-8.202c7.657,0,15.37,1.323,22.85,3.993
	c15.651,5.587,28.747,16.914,36.603,31.559c7.183,13.392,9.613,28.369,7.025,43.3c-2.131,12.296-2.806,24.166-2.006,35.283
	l0.305,4.25c0.746,10.397,2.732,21.104,5.901,31.823c6.232,21.084-3.481,43.677-23.097,53.721
	c-22.097,11.318-49.778,2.342-61.699-20.009l-12.455-23.355c-2.555-4.79-9.01-5.751-12.849-1.912l0,0
	c-2.516,2.516-3.091,6.381-1.416,9.52l12.456,23.355c11.272,21.133,33.069,33.349,55.408,33.443l45.759,61.011l9.595,105.55
	c0.937,10.311,9.452,18.087,19.805,18.087s18.869-7.776,19.805-18.087l9.595-105.55l45.759-61.011
	c22.337-0.096,44.138-12.312,55.408-33.443l44.79-83.979C453.119,169.126,438.139,118.185,397.961,96.375z M271.091,380.497
	c-0.9,1.199-1.448,2.626-1.583,4.119l-9.803,107.834c-0.176,1.928-1.769,3.382-3.705,3.382c-1.936,0-3.528-1.454-3.705-3.382
	l-9.803-107.834c-0.136-1.494-0.683-2.92-1.583-4.119l-41.883-55.844c3.307-1.021,6.567-2.326,9.74-3.952
	c3.123-1.599,6.052-3.442,8.79-5.48l32.726,32.726c1.579,1.578,3.649,2.367,5.717,2.367c2.068,0,4.138-0.789,5.717-2.367
	l32.726-32.726c2.738,2.038,5.668,3.88,8.79,5.479c3.174,1.625,6.434,2.931,9.741,3.952L271.091,380.497z M417.092,202.322
	l-44.79,83.979c-11.922,22.35-39.596,31.328-61.7,20.009c-19.616-10.044-29.328-32.638-23.096-53.721
	c3.168-10.719,5.155-21.426,5.901-31.823l0.305-4.249c0.799-11.117,0.124-22.988-2.006-35.285
	c-2.579-14.876-0.177-29.798,6.944-43.151c8.513-15.961,22.744-27.617,40.07-32.819c6.411-1.926,12.956-2.88,19.465-2.88
	c11.075,0,22.045,2.764,32.063,8.202v0.001C422.647,128.172,434.689,169.326,417.092,202.322z"/>
</svg>